<svg width="403" height="382" viewBox="0 0 403 382" fill="none" xmlns="http://www.w3.org/2000/svg">
<path d="M256.078 13.0821C260.096 15.1645 264.119 16.2026 268.5 17.25C282.044 20.7781 293.508 26.6865 304 36C304.67 36.5286 305.341 37.0571 306.031 37.6016C316.613 46.1255 323.784 58.1111 330 70C330.327 70.607 330.654 71.214 330.991 71.8394C344.017 96.2446 348.83 124.349 353.175 151.391C359.406 190.126 370.223 222.367 398 251.066C401.676 255.016 402.662 257.655 403 263C399.928 277.392 391.445 291.256 381.262 301.668C378.964 303.949 378.964 303.949 377.074 306.5C363.536 322.818 339.756 332.521 319.168 334.766C310.47 335.369 301.711 335.155 293 335C292.561 335.92 292.561 335.92 292.113 336.859C282.525 355.302 258.12 369.434 239 376C207.796 385.776 178.49 383.251 149.375 368.25C141.952 364.284 135.484 359.349 129 354C128.481 353.582 127.962 353.163 127.427 352.732C124.44 350.302 121.79 347.82 119.313 344.875C117.69 342.957 116.117 341.111 114.293 339.383C113 338 113 338 113 336C112.231 335.985 111.461 335.971 110.668 335.956C81.4811 335.338 81.4811 335.338 70.0002 332C69.0032 331.712 69.0032 331.712 67.986 331.418C43.1441 324.034 22.4405 308.027 9.70184 285.304C4.98037 276.495 -0.0384919 266.214 1.00018 256C2.35847 253.395 3.91569 251.078 6.00018 249C6.66018 249 7.32018 249 8.00018 249C8.24897 248.425 8.49776 247.85 8.75409 247.258C10.1804 244.673 11.8599 242.972 13.9377 240.875C27.5381 225.941 35.9423 206.772 40.9767 187.402C41.2343 186.412 41.4919 185.421 41.7572 184.4C44.5534 173.296 46.333 162.06 48.0627 150.75C50.8018 132.918 53.855 115.241 60.3127 98.3125C60.6048 97.5369 60.8969 96.7613 61.1979 95.9622C73.0281 65.3169 93.1737 39.6089 121 22C121.906 21.4243 121.906 21.4243 122.829 20.837C160.137 -2.28445 216.706 -7.61743 256.078 13.0821ZM242 74C241.611 74.7877 241.222 75.5753 240.82 76.3868C236.379 85.0345 231.218 92.5397 225 100C224.179 100.999 223.358 101.998 222.512 103.027C190.694 139.77 138.451 155.549 92.0002 162C90.5904 166.545 89.697 170.663 89.3752 175.438C89.3004 176.488 89.2257 177.539 89.1486 178.621C89.0996 179.406 89.0507 180.191 89.0002 181C93.538 179.286 93.538 179.286 97.0002 176C97.0002 175.34 97.0002 174.68 97.0002 174C97.5506 173.74 98.101 173.479 98.6682 173.211C101.067 172.009 101.067 172.009 103.488 170.414C119.25 160.429 136.917 158.226 155 162C168.29 165.054 179.648 172.408 187 184C187.33 184.66 187.66 185.32 188 186C188.981 185.821 189.962 185.642 190.973 185.457C201.075 183.801 209.09 184.352 219 187C219.52 186.336 220.039 185.672 220.574 184.988C232.499 169.89 244.159 162.632 263.488 160.25C278.62 159.173 294.954 162.579 306.871 172.356C308.588 173.923 310.281 175.517 311.942 177.145C313.953 179.207 313.953 179.207 317 180C316.581 175.473 315.906 171.152 314.75 166.75C314.539 165.941 314.327 165.131 314.11 164.297C311.582 159.065 305.859 156.662 301 153.875C274.388 138.167 253.856 115.127 245.601 84.8992C244.672 81.2782 243.813 77.6488 243 74C242.67 74 242.34 74 242 74ZM105.758 185.035C97.6352 194.115 97.3377 204.195 97.8122 215.808C98.4499 223.245 102.125 229.772 106 236C106.66 236 107.32 236 108 236C108.186 236.557 108.371 237.114 108.563 237.688C112.926 244.706 121.381 247.172 129 249C141.371 251.071 153.087 249.792 163.715 242.793C173.125 235.41 177.933 226.536 179.746 214.824C180.673 204.512 178.424 194.89 171.875 186.75C162.368 176.694 150.329 173.458 136.938 173.004C124.852 172.992 114.678 176.783 105.758 185.035ZM239.688 183.125C231.39 191.084 228.704 200.253 227.688 211.438C228.554 221.319 231.968 231.783 239 239C250.115 248.024 261.277 251.086 275.625 249.633C287.456 247.531 296.144 242.345 303.344 232.695C305.999 228.375 307.625 223.863 309 219C309.192 218.34 309.384 217.68 309.582 217C311.627 207.218 309.472 197.657 304.313 189.25C298.17 180.692 289.622 176.427 279.485 174.242C265.096 171.903 251.111 173.572 239.688 183.125ZM194 201C193.276 204.981 192.814 208.933 192.456 212.963C191.041 227.813 185.37 240.677 174.445 251.082C162.885 260.149 147.585 264.428 133 263C119.216 261.189 106.773 256.206 97.1916 245.883C91.7528 238.728 88.2894 230.662 86.0002 222C85.6702 222 85.3402 222 85.0002 222C85.7847 249.379 92.839 274.987 106 299C106.614 300.164 107.227 301.328 107.86 302.527C122.632 329.661 145.01 352.713 174.926 362.316C200.089 369.473 227.056 365.963 250 354C283.797 334.827 305.997 298.488 316.469 261.992C319.94 249.258 322.228 236.242 322 223C320.71 225.561 319.448 228.135 318.195 230.715C317.506 232.123 316.815 233.53 316.125 234.938C315.786 235.641 315.447 236.344 315.098 237.068C309.235 248.962 299.997 254.861 288 260C272.725 265.133 255.987 263.561 241.309 257.223C228.963 250.684 221.221 240.024 216.992 226.863C214.907 218.633 214.339 210.454 214 202C212.398 201.495 210.793 200.996 209.188 200.5C208.294 200.222 207.401 199.943 206.481 199.656C201.874 198.438 198.468 199.651 194 201Z" fill="#D99448"/>
<path d="M174 300C175.579 300.759 177.141 301.554 178.688 302.375C191.793 309.174 207.032 310.052 221.184 306.066C225.201 304.545 228.799 302.489 232.43 300.207C235.504 298.764 237.641 298.705 241 299C242.938 300.125 242.938 300.125 244 302C244.193 306.14 242.757 308.745 240.313 311.938C232.222 320.629 219.839 324.765 208.204 325.336C192.486 325.62 178.025 322.931 166 312C163.537 308.305 163.611 306.367 164 302C166.238 297.789 170.023 298.754 174 300Z" fill="#DA9447"/>
<path d="M277.25 198.75C280.955 201.781 282.518 204.293 283.812 208.875C284.116 213.928 282.921 217.619 280.125 221.812C277.456 224.559 275.422 225.822 271.598 226.301C264.969 226.331 261.651 225.504 256.75 220.875C254.366 216.959 253.797 213.56 254 209C255.447 204.355 257.121 200.992 261 198C266.9 195.247 271.553 195.683 277.25 198.75Z" fill="#DA9347"/>
<path d="M146.75 198.375C151.332 201.684 152.716 204.134 153.774 209.656C154.255 214.633 152.868 217.909 149.813 221.75C146.182 224.654 142.803 227.171 137.949 226.875C133.475 225.931 130.188 224.37 127 221C124.231 216.292 123.462 212.525 124.297 207.215C125.548 203.274 127.841 200.605 131 198C136.437 195.224 141.33 195.665 146.75 198.375Z" fill="#DA9347"/>
<path d="M198.883 269.684C203.129 270.007 206.791 269.832 211 269C215.307 268.676 218.272 268.515 222 271C223 274.313 223 274.313 223 278C219.532 282.59 215.83 284.504 210.238 285.484C201.936 286.238 194.958 286.014 187.438 282.188C185 280 185 280 183.938 277.563C184.018 274.259 185.036 272.619 187 270C190.562 268.219 194.978 269.347 198.883 269.684Z" fill="#DA9347"/>
<path d="M291 180C293 181 293 181 293 181L291 180Z" fill="#DF994D"/>
<path d="M120 158C122 159 122 159 122 159L120 158Z" fill="#E09B4C"/>
</svg>
